<?xml version="1.0" encoding="UTF-8"?>
<svg width="32" height="32" viewBox="0 0 512 512" fill="none" xmlns="http://www.w3.org/2000/svg">
  <circle cx="256" cy="256" r="240" fill="#1A73E8" opacity="0.1"/>
  <path d="M128 96h256c17.7 0 32 14.3 32 32v48h-32V128H128v256h256v-48h32v48c0 17.7-14.3 32-32 32H128c-17.7 0-32-14.3-32-32V128c0-17.7 14.3-32 32-32z" fill="#1A73E8"/>
  <line x1="160" y1="180" x2="320" y2="180" stroke="#34A853" stroke-width="6" stroke-linecap="round"/>
  <line x1="160" y1="200" x2="300" y2="200" stroke="#34A853" stroke-width="4" stroke-linecap="round" opacity="0.7"/>
  <line x1="160" y1="220" x2="280" y2="220" stroke="#34A853" stroke-width="3" stroke-linecap="round" opacity="0.6"/>
  <circle cx="160" cy="180" r="3" fill="#34A853"/>
  <circle cx="320" cy="180" r="3" fill="#34A853"/>
  <g transform="translate(200, 280)">
    <rect x="0" y="0" width="32" height="24" fill="#FFFFFF" stroke="#1A73E8" stroke-width="1"/>
    <line x1="16" y1="0" x2="16" y2="24" stroke="#1A73E8" stroke-width="1"/>
    <line x1="0" y1="8" x2="32" y2="8" stroke="#1A73E8" stroke-width="1"/>
    <line x1="0" y1="16" x2="32" y2="16" stroke="#1A73E8" stroke-width="1"/>
    <text x="16" y="20" text-anchor="middle" font-family="Arial, sans-serif" font-size="8" fill="#1A73E8" font-weight="bold">G</text>
  </g>
</svg>