<?xml version="1.0" encoding="UTF-8"?>
<svg width="512" height="512" viewBox="0 0 512 512" fill="none" xmlns="http://www.w3.org/2000/svg">
  <path d="M128 96h256c17.7 0 32 14.3 32 32v48h-32V128H128v256h256v-48h32v48c0 17.7-14.3 32-32 32H128c-17.7 0-32-14.3-32-32V128c0-17.7 14.3-32 32-32z" fill="black"/>
  <line x1="160" y1="180" x2="320" y2="180" stroke="black" stroke-width="4" stroke-linecap="round"/>
  <line x1="160" y1="200" x2="280" y2="200" stroke="black" stroke-width="3" stroke-linecap="round"/>
  <line x1="160" y1="220" x2="240" y2="220" stroke="black" stroke-width="2" stroke-linecap="round"/>
  <g transform="translate(200, 280)">
    <rect x="0" y="0" width="32" height="24" fill="none" stroke="black" stroke-width="2"/>
    <line x1="16" y1="0" x2="16" y2="24" stroke="black" stroke-width="1"/>
    <line x1="0" y1="8" x2="32" y2="8" stroke="black" stroke-width="1"/>
    <line x1="0" y1="16" x2="32" y2="16" stroke="black" stroke-width="1"/>
  </g>
</svg>